<?xml version="1.0"?><svg width="744.09448" height="1052.3622" xmlns="http://www.w3.org/2000/svg">
 <title>eighth note</title>

 <metadata id="metadata2991">image/svg+xmleighth noteJaschon</metadata>
 <g>
  <title>Layer 1</title>
  <g id="layer1">
   <path d="m417.388,233.343002c14.319,21.136002 21.682007,46.728012 40.13501,64.98201c21.134979,27.834991 48.145996,50.890991 69.088989,79.057983c15.156006,19.681 31.770996,40.598999 36.073975,65.356995c11.587036,31.757019 6.55603,67.408997 -5.804993,98.497986c-13.94696,16.765015 -23.482971,-4.931946 -19.588989,-18.36499c0.593018,-18.534973 0.322998,-37.020996 -6.786011,-54.527985c-6.304993,-26.255005 -17.833984,-51.101013 -37.136993,-70.365997c-16.772003,-14.700989 -35.811981,-47.093994 -61.380981,-35.94101c-16.88501,10.636993 -9.528992,32.139008 -11.346008,48.712006c-1.003998,101.950989 -1.070984,203.94397 -2.700989,305.866028c-1.246002,42.80896 -38.247009,71.528992 -72.880005,89.907959c-30.854004,18.567993 -67.795013,28.966003 -103.609009,20.69104c-33.302994,-3.417053 -67.755997,-27.730042 -68.453995,-63.704041c-2.220001,-41.710999 27.904999,-80.552979 64.988998,-97.023987c36.403992,-20.749023 82.428986,-25.245972 121.631012,-10.330994c19.155975,6.054993 24.483002,-11.721008 26.872986,-28.819031c2.213013,-129.769989 3.983002,-259.544983 4.436005,-389.333969c0.365997,-12.973999 21.496002,-16.139999 26.460999,-4.660004l0,0l0,0z" id="path3" stroke-linejoin="round" stroke-linecap="round" stroke-width="5.924108" stroke="#000000" fill-rule="evenodd" fill="#007fff"/>
  </g>
 </g>
</svg>